<svg width="640" height="420" viewBox="0 0 640 420" fill="none" xmlns="http://www.w3.org/2000/svg">
  <rect width="640" height="420" rx="28" fill="#EEF9F3"/>
  <rect x="84" y="74" width="190" height="246" rx="24" fill="#FFFFFF"/>
  <rect x="366" y="88" width="188" height="220" rx="28" fill="#DDF2FF"/>
  <path d="M120 280L188 176L232 214L278 140L340 198L392 164L450 224L520 136" stroke="#4B87C1" stroke-width="14" stroke-linecap="round" stroke-linejoin="round"/>
  <circle cx="188" cy="176" r="18" fill="#FFB648"/>
  <circle cx="278" cy="140" r="18" fill="#FF5F7D"/>
  <circle cx="392" cy="164" r="18" fill="#4EB2BF"/>
  <circle cx="520" cy="136" r="18" fill="#2F9F76"/>
  <circle cx="178" cy="138" r="38" fill="#FFD9B3"/>
  <rect x="146" y="176" width="64" height="96" rx="24" fill="#4B87C1"/>
  <rect x="212" y="188" width="36" height="64" rx="18" fill="#FFB648"/>
  <rect x="118" y="340" width="144" height="42" rx="14" fill="#4B87C1"/>
  <text x="190" y="367" text-anchor="middle" fill="#FFFFFF" font-family="Arial, sans-serif" font-size="24" font-weight="700">Stay Aware</text>
  <rect x="336" y="340" width="224" height="46" rx="16" fill="#1F8B66"/>
  <text x="448" y="369" text-anchor="middle" fill="#FFFFFF" font-family="Arial, sans-serif" font-size="22" font-weight="700">Light + Crowd</text>
</svg>
