<svg width="640" height="420" viewBox="0 0 640 420" fill="none" xmlns="http://www.w3.org/2000/svg">
  <rect width="640" height="420" rx="28" fill="#EAF5FF"/>
  <circle cx="320" cy="118" r="48" fill="#FFD9B3"/>
  <rect x="278" y="168" width="84" height="112" rx="28" fill="#4B87C1"/>
  <rect x="226" y="190" width="58" height="24" rx="12" transform="rotate(-24 226 190)" fill="#4EB2BF"/>
  <rect x="356" y="190" width="58" height="24" rx="12" transform="rotate(24 356 190)" fill="#4EB2BF"/>
  <rect x="284" y="278" width="24" height="90" rx="12" transform="rotate(10 284 278)" fill="#2F5D8A"/>
  <rect x="330" y="278" width="24" height="90" rx="12" transform="rotate(-12 330 278)" fill="#2F5D8A"/>
  <path d="M175 124C205 94 237 82 273 84" stroke="#FF5F7D" stroke-width="16" stroke-linecap="round"/>
  <path d="M465 124C435 94 403 82 367 84" stroke="#FF5F7D" stroke-width="16" stroke-linecap="round"/>
  <rect x="112" y="306" width="170" height="54" rx="18" fill="#FFFFFF"/>
  <text x="197" y="340" text-anchor="middle" fill="#2B5A86" font-family="Arial, sans-serif" font-size="28" font-weight="700">Hands Up</text>
  <rect x="360" y="306" width="170" height="54" rx="18" fill="#FFFFFF"/>
  <text x="445" y="340" text-anchor="middle" fill="#2B5A86" font-family="Arial, sans-serif" font-size="28" font-weight="700">Step Back</text>
</svg>
